{
    "asset": {
        "copyright": "2020 (c) Adobe Inc.",
        "generator": "Adobe Dimension - a39c749b7f1dd68e8fcb597e3575f0bb9d09bfc8",
        "version": "2.0"
    },
    "accessors": [
        {
            "bufferView": 0,
            "componentType": 5126,
            "count": 119808,
            "type": "VEC3",
            "max": [
                0.06753888726234436,
                0.20084071159362794,
                0.06161219999194145
            ],
            "min": [
                -0.06846717745065689,
                -0.000756800000090152,
                -0.06244595721364021
            ]
        },
        {
            "bufferView": 1,
            "componentType": 5126,
            "count": 119808,
            "type": "VEC3"
        },
        {
            "bufferView": 2,
            "componentType": 5126,
            "count": 119808,
            "type": "VEC2"
        },
        {
            "bufferView": 3,
            "componentType": 5125,
            "count": 119808,
            "type": "SCALAR",
            "max": [
                119807.0
            ],
            "min": [
                0.0
            ]
        }
    ],
    "bufferViews": [
        {
            "buffer": 0,
            "byteOffset": 0,
            "byteLength": 1437696,
            "target": 34962
        },
        {
            "buffer": 0,
            "byteOffset": 1437696,
            "byteLength": 1437696,
            "target": 34962
        },
        {
            "buffer": 0,
            "byteOffset": 2875392,
            "byteLength": 958464,
            "target": 34962
        },
        {
            "buffer": 0,
            "byteOffset": 3833856,
            "byteLength": 479232,
            "target": 34963
        }
    ],
    "buffers": [
        {
            "byteLength": 4313088,
            "uri": "curve_binary.bin"
        }
    ],
    "cameras": [
        {
            "perspective": {
                "znear": 0.000010029302757175174,
                "yfov": 0.6024156808853149,
                "zfar": 2.0,
                "aspectRatio": 1.3333333730697632
            },
            "type": "perspective",
            "name": "render_camera"
        }
    ],
    "images": [
        {
            "name": "vitrage_glass_baseColor",
            "uri": "curve_images/vitrage_glass_baseColor.jpg",
            "mimeType": "image/jpeg"
        },
        {
            "name": "vitrage_glass_normal",
            "uri": "curve_images/vitrage_glass_normal.png",
            "mimeType": "image/png"
        }
    ],
    "materials": [
        {
            "pbrMetallicRoughness": {
                "baseColorFactor": [
                    1.0,
                    1.0,
                    1.0,
                    0.25
                ],
                "baseColorTexture": {
                    "index": 0
                },
                "metallicFactor": 0.0,
                "roughnessFactor": 0.0
            },
            "normalTexture": {
                "index": 1
            },
            "alphaMode": "BLEND",
            "name": "Vitrage Glass",
            "doubleSided": true
        }
    ],
    "meshes": [
        {
            "name": "Mobius Strip",
            "primitives": [
                {
                    "attributes": {
                        "POSITION": 0,
                        "NORMAL": 1,
                        "TEXCOORD_0": 2
                    },
                    "indices": 3,
                    "material": 0
                }
            ]
        }
    ],
    "nodes": [
        {
            "translation": [
                0.8109208345413208,
                0.2552250027656555,
                0.8047712445259094
            ],
            "rotation": [
                -0.12059047073125839,
                0.379409521818161,
                0.04995020851492882,
                0.9159756302833557
            ],
            "scale": [
                1.0,
                1.0,
                0.9999999403953552
            ],
            "camera": 0,
            "name": "render_camera_n3d"
        },
        {
            "translation": [
                0.0008525466546416283,
                0.0013901375932618976,
                0.0007657622918486595
            ],
            "scale": [
                1.8368607759475709,
                1.8368607759475709,
                1.8368607759475709
            ],
            "mesh": 0,
            "name": "Mobius Strip"
        }
    ],
    "samplers": [
        {},
        {}
    ],
    "scenes": [
        {
            "nodes": [
                0,
                1
            ],
            "name": "scene"
        }
    ],
    "textures": [
        {
            "name": "vitrage_glass_material::baseColor::image",
            "sampler": 0,
            "source": 0
        },
        {
            "name": "vitrage_glass_material::normal::image",
            "sampler": 1,
            "source": 1
        }
    ],
    "scene": 0
}