{
    "asset": {
        "copyright": "2020 (c) Adobe Inc.",
        "generator": "Adobe Dimension - a39c749b7f1dd68e8fcb597e3575f0bb9d09bfc8",
        "version": "2.0"
    },
    "accessors": [
        {
            "bufferView": 0,
            "componentType": 5126,
            "count": 172686,
            "type": "VEC3",
            "max": [
                1.0969401597976685,
                0.09243018925189972,
                0.005849936977028847
            ],
            "min": [
                0.004680009558796883,
                -0.15729999542236329,
                -0.009999999776482582
            ]
        },
        {
            "bufferView": 1,
            "componentType": 5126,
            "count": 172686,
            "type": "VEC3"
        },
        {
            "bufferView": 2,
            "componentType": 5126,
            "count": 172686,
            "type": "VEC2"
        },
        {
            "bufferView": 3,
            "componentType": 5125,
            "count": 172686,
            "type": "SCALAR",
            "max": [
                172685.0
            ],
            "min": [
                0.0
            ]
        }
    ],
    "bufferViews": [
        {
            "buffer": 0,
            "byteOffset": 0,
            "byteLength": 2072232,
            "target": 34962
        },
        {
            "buffer": 0,
            "byteOffset": 2072232,
            "byteLength": 2072232,
            "target": 34962
        },
        {
            "buffer": 0,
            "byteOffset": 4144464,
            "byteLength": 1381488,
            "target": 34962
        },
        {
            "buffer": 0,
            "byteOffset": 5525952,
            "byteLength": 690744,
            "target": 34963
        }
    ],
    "buffers": [
        {
            "byteLength": 6216696,
            "uri": "This_Too_Shall Pass3_binary.bin"
        }
    ],
    "cameras": [
        {
            "perspective": {
                "znear": 0.00002242514892714098,
                "yfov": 0.6024156808853149,
                "zfar": 2.0,
                "aspectRatio": 1.3333333730697632
            },
            "type": "perspective",
            "name": "render_camera"
        }
    ],
    "images": [
        {
            "name": "basecolor_image_texture",
            "uri": "This_Too_Shall Pass3_images/basecolor_image_texture.jpg",
            "mimeType": "image/jpeg"
        },
        {
            "name": "roughness_image_texture",
            "uri": "This_Too_Shall Pass3_images/roughness_image_texture.png",
            "mimeType": "image/png"
        },
        {
            "name": "normal_image_texture",
            "uri": "This_Too_Shall Pass3_images/normal_image_texture.png",
            "mimeType": "image/png"
        }
    ],
    "materials": [
        {
            "pbrMetallicRoughness": {
                "baseColorTexture": {
                    "index": 0
                },
                "metallicFactor": 0.0,
                "metallicRoughnessTexture": {
                    "index": 1
                }
            },
            "normalTexture": {
                "index": 2
            },
            "name": "Brushed Concrete",
            "doubleSided": true
        }
    ],
    "meshes": [
        {
            "name": "TextMesh#",
            "primitives": [
                {
                    "attributes": {
                        "POSITION": 0,
                        "NORMAL": 1,
                        "TEXCOORD_0": 2
                    },
                    "indices": 3,
                    "material": 0
                }
            ]
        }
    ],
    "nodes": [
        {
            "translation": [
                0.43824297189712527,
                0.1715581864118576,
                0.6356825232505798
            ],
            "rotation": [
                -0.12059047073125839,
                0.379409521818161,
                0.04995020851492882,
                0.9159756302833557
            ],
            "scale": [
                1.0,
                1.0,
                0.9999999403953552
            ],
            "camera": 0,
            "name": "render_camera_n3d"
        },
        {
            "translation": [
                -0.5508100986480713,
                0.15729999542236329,
                0.0055863093584775929
            ],
            "scale": [
                1.0,
                1.0,
                2.69215989112854
            ],
            "mesh": 0,
            "name": "Text"
        }
    ],
    "samplers": [
        {},
        {},
        {}
    ],
    "scenes": [
        {
            "nodes": [
                0,
                1
            ],
            "name": "scene"
        }
    ],
    "textures": [
        {
            "name": "basecolor_image_texture",
            "sampler": 0,
            "source": 0
        },
        {
            "name": "roughness_image_texture",
            "sampler": 1,
            "source": 1
        },
        {
            "name": "normal_image_texture",
            "sampler": 2,
            "source": 2
        }
    ],
    "scene": 0
}