{
    "asset": {
        "copyright": "2020 (c) Adobe Inc.",
        "generator": "Adobe Dimension - a39c749b7f1dd68e8fcb597e3575f0bb9d09bfc8",
        "version": "2.0"
    },
    "accessors": [
        {
            "bufferView": 0,
            "componentType": 5126,
            "count": 2399,
            "type": "VEC3",
            "max": [
                0.09999999403953552,
                0.19999998807907105,
                0.09999999403953552
            ],
            "min": [
                -0.09999999403953552,
                0.0,
                -0.09999999403953552
            ]
        },
        {
            "bufferView": 1,
            "componentType": 5126,
            "count": 2399,
            "type": "VEC3"
        },
        {
            "bufferView": 2,
            "componentType": 5126,
            "count": 2399,
            "type": "VEC2"
        },
        {
            "bufferView": 3,
            "componentType": 5125,
            "count": 13536,
            "type": "SCALAR",
            "max": [
                2398.0
            ],
            "min": [
                0.0
            ]
        },
        {
            "bufferView": 4,
            "componentType": 5126,
            "count": 462042,
            "type": "VEC3",
            "max": [
                0.4790802001953125,
                0.10332020372152329,
                0.0033704780507832767
            ],
            "min": [
                -0.01904003880918026,
                -0.033320069313049319,
                -0.009999999776482582
            ]
        },
        {
            "bufferView": 5,
            "componentType": 5126,
            "count": 462042,
            "type": "VEC3"
        },
        {
            "bufferView": 6,
            "componentType": 5126,
            "count": 462042,
            "type": "VEC2"
        },
        {
            "bufferView": 7,
            "componentType": 5125,
            "count": 462042,
            "type": "SCALAR",
            "max": [
                462041.0
            ],
            "min": [
                0.0
            ]
        },
        {
            "bufferView": 8,
            "componentType": 5126,
            "count": 703584,
            "type": "VEC3",
            "max": [
                0.6448400616645813,
                0.10416708886623383,
                0.0033704745583236219
            ],
            "min": [
                -0.016520030796527864,
                -0.03457788750529289,
                -0.009999999776482582
            ]
        },
        {
            "bufferView": 9,
            "componentType": 5126,
            "count": 703584,
            "type": "VEC3"
        },
        {
            "bufferView": 10,
            "componentType": 5126,
            "count": 703584,
            "type": "VEC2"
        },
        {
            "bufferView": 11,
            "componentType": 5125,
            "count": 703584,
            "type": "SCALAR",
            "max": [
                703583.0
            ],
            "min": [
                0.0
            ]
        }
    ],
    "bufferViews": [
        {
            "buffer": 0,
            "byteOffset": 0,
            "byteLength": 28788,
            "target": 34962
        },
        {
            "buffer": 0,
            "byteOffset": 28788,
            "byteLength": 28788,
            "target": 34962
        },
        {
            "buffer": 0,
            "byteOffset": 57576,
            "byteLength": 19192,
            "target": 34962
        },
        {
            "buffer": 0,
            "byteOffset": 76768,
            "byteLength": 54144,
            "target": 34963
        },
        {
            "buffer": 0,
            "byteOffset": 130912,
            "byteLength": 5544504,
            "target": 34962
        },
        {
            "buffer": 0,
            "byteOffset": 5675416,
            "byteLength": 5544504,
            "target": 34962
        },
        {
            "buffer": 0,
            "byteOffset": 11219920,
            "byteLength": 3696336,
            "target": 34962
        },
        {
            "buffer": 0,
            "byteOffset": 14916256,
            "byteLength": 1848168,
            "target": 34963
        },
        {
            "buffer": 0,
            "byteOffset": 16764424,
            "byteLength": 8443008,
            "target": 34962
        },
        {
            "buffer": 0,
            "byteOffset": 25207432,
            "byteLength": 8443008,
            "target": 34962
        },
        {
            "buffer": 0,
            "byteOffset": 33650440,
            "byteLength": 5628672,
            "target": 34962
        },
        {
            "buffer": 0,
            "byteOffset": 39279112,
            "byteLength": 2814336,
            "target": 34963
        }
    ],
    "buffers": [
        {
            "byteLength": 42093448,
            "uri": "ttsp_binary.bin"
        }
    ],
    "cameras": [
        {
            "perspective": {
                "znear": 0.00004869265831075609,
                "yfov": 0.6024156808853149,
                "zfar": 2.678096294403076,
                "aspectRatio": 1.3333333730697632
            },
            "type": "perspective",
            "name": "render_camera"
        }
    ],
    "images": [
        {
            "name": "rainbow_anodized_metal_baseColor",
            "uri": "ttsp_images/rainbow_anodized_metal_baseColor.jpg",
            "mimeType": "image/jpeg"
        },
        {
            "name": "image3",
            "uri": "ttsp_images/image3.png",
            "mimeType": "image/png"
        },
        {
            "name": "normal_image_texture",
            "uri": "ttsp_images/normal_image_texture.png",
            "mimeType": "image/png"
        }
    ],
    "materials": [
        {
            "pbrMetallicRoughness": {
                "baseColorFactor": [
                    1.0,
                    1.0,
                    1.0,
                    0.6399999856948853
                ],
                "baseColorTexture": {
                    "index": 0
                },
                "metallicRoughnessTexture": {
                    "index": 1
                }
            },
            "emissiveTexture": {
                "index": 0
            },
            "emissiveFactor": [
                0.7799999713897705,
                0.7799999713897705,
                0.7799999713897705
            ],
            "alphaMode": "BLEND",
            "name": "Rainbow Anodized Metal",
            "doubleSided": true
        },
        {
            "pbrMetallicRoughness": {
                "baseColorFactor": [
                    1.0,
                    1.0,
                    0.0,
                    0.4399999976158142
                ],
                "metallicFactor": 0.3100000023841858,
                "roughnessFactor": 0.0
            },
            "alphaMode": "BLEND",
            "name": "Glass",
            "doubleSided": true
        },
        {
            "pbrMetallicRoughness": {
                "baseColorFactor": [
                    0.9646862745285034,
                    0.9559735059738159,
                    0.9130986928939819,
                    1.0
                ],
                "roughnessFactor": 0.3607843220233917
            },
            "normalTexture": {
                "index": 2
            },
            "name": "Silver Glossy",
            "doubleSided": true
        }
    ],
    "meshes": [
        {
            "name": "PROCEDURAL_MESHES_SPHERE#",
            "primitives": [
                {
                    "attributes": {
                        "POSITION": 0,
                        "NORMAL": 1,
                        "TEXCOORD_0": 2
                    },
                    "indices": 3,
                    "material": 0
                }
            ]
        },
        {
            "name": "PROCEDURAL_MESHES_SPHERE#",
            "primitives": [
                {
                    "attributes": {
                        "TEXCOORD_0": 2,
                        "NORMAL": 1,
                        "POSITION": 0
                    },
                    "indices": 3,
                    "material": 1
                }
            ]
        },
        {
            "name": "PROCEDURAL_MESHES_SPHERE#",
            "primitives": [
                {
                    "attributes": {
                        "POSITION": 0,
                        "NORMAL": 1,
                        "TEXCOORD_0": 2
                    },
                    "indices": 3,
                    "material": 0
                }
            ]
        },
        {
            "name": "PROCEDURAL_MESHES_SPHERE#",
            "primitives": [
                {
                    "attributes": {
                        "POSITION": 0,
                        "NORMAL": 1,
                        "TEXCOORD_0": 2
                    },
                    "indices": 3,
                    "material": 0
                }
            ]
        },
        {
            "name": "PROCEDURAL_MESHES_SPHERE#",
            "primitives": [
                {
                    "attributes": {
                        "TEXCOORD_0": 2,
                        "NORMAL": 1,
                        "POSITION": 0
                    },
                    "indices": 3,
                    "material": 0
                }
            ]
        },
        {
            "name": "PROCEDURAL_MESHES_SPHERE#",
            "primitives": [
                {
                    "attributes": {
                        "TEXCOORD_0": 2,
                        "NORMAL": 1,
                        "POSITION": 0
                    },
                    "indices": 3,
                    "material": 0
                }
            ]
        },
        {
            "name": "PROCEDURAL_MESHES_SPHERE#",
            "primitives": [
                {
                    "attributes": {
                        "TEXCOORD_0": 2,
                        "NORMAL": 1,
                        "POSITION": 0
                    },
                    "indices": 3,
                    "material": 0
                }
            ]
        },
        {
            "name": "PROCEDURAL_MESHES_SPHERE#",
            "primitives": [
                {
                    "attributes": {
                        "TEXCOORD_0": 2,
                        "NORMAL": 1,
                        "POSITION": 0
                    },
                    "indices": 3,
                    "material": 0
                }
            ]
        },
        {
            "name": "PROCEDURAL_MESHES_SPHERE#",
            "primitives": [
                {
                    "attributes": {
                        "POSITION": 0,
                        "NORMAL": 1,
                        "TEXCOORD_0": 2
                    },
                    "indices": 3,
                    "material": 0
                }
            ]
        },
        {
            "name": "PROCEDURAL_MESHES_SPHERE#",
            "primitives": [
                {
                    "attributes": {
                        "POSITION": 0,
                        "NORMAL": 1,
                        "TEXCOORD_0": 2
                    },
                    "indices": 3,
                    "material": 0
                }
            ]
        },
        {
            "name": "TextMesh#",
            "primitives": [
                {
                    "attributes": {
                        "POSITION": 4,
                        "NORMAL": 5,
                        "TEXCOORD_0": 6
                    },
                    "indices": 7,
                    "material": 2
                }
            ]
        },
        {
            "name": "TextMesh#",
            "primitives": [
                {
                    "attributes": {
                        "POSITION": 8,
                        "NORMAL": 9,
                        "TEXCOORD_0": 10
                    },
                    "indices": 11,
                    "material": 2
                }
            ]
        }
    ],
    "nodes": [
        {
            "translation": [
                1.3960970640182496,
                0.10003598779439926,
                0.31854498386383059
            ],
            "rotation": [
                -0.12059047073125839,
                0.379409521818161,
                0.04995020851492882,
                0.9159756302833557
            ],
            "scale": [
                1.0,
                1.0,
                0.9999999403953552
            ],
            "camera": 0,
            "name": "render_camera_n3d"
        },
        {
            "translation": [
                -0.47344130277633669,
                0.03349584341049194,
                -0.29393404722213747
            ],
            "rotation": [
                0.0,
                0.0,
                -0.3826834261417389,
                0.9238795042037964
            ],
            "scale": [
                0.7780064344406128,
                0.7780064344406128,
                0.7780070900917053
            ],
            "mesh": 0,
            "name": "Sphere 7"
        },
        {
            "translation": [
                -0.05068725347518921,
                0.2848520278930664,
                -0.18145500123500825
            ],
            "scale": [
                1.6151043176651,
                1.6151043176651,
                1.6151043176651
            ],
            "mesh": 1,
            "name": "Sphere 10"
        },
        {
            "translation": [
                0.4329974353313446,
                0.09261415153741837,
                -0.3872342109680176
            ],
            "scale": [
                0.8300000429153442,
                0.8300000429153442,
                0.8300000429153442
            ],
            "mesh": 2,
            "name": "Sphere 3"
        },
        {
            "translation": [
                -0.4329974353313446,
                0.011006850749254227,
                -0.1478855162858963
            ],
            "scale": [
                1.2525683641433716,
                1.2525683641433716,
                1.2525683641433716
            ],
            "mesh": 3,
            "name": "Sphere 9"
        },
        {
            "translation": [
                0.4329974353313446,
                0.24586030840873719,
                0.3457256257534027
            ],
            "scale": [
                0.8300000429153442,
                0.8300000429153442,
                0.8300000429153442
            ],
            "mesh": 4,
            "name": "Sphere 5"
        },
        {
            "translation": [
                -0.4329974353313446,
                0.0,
                0.0010367966024205089
            ],
            "scale": [
                0.8300000429153442,
                0.8300000429153442,
                0.8300000429153442
            ],
            "mesh": 5,
            "name": "Sphere 8"
        },
        {
            "translation": [
                0.39255353808403017,
                0.12610997259616853,
                -0.6822050213813782
            ],
            "rotation": [
                0.0,
                0.0,
                -0.3826834261417389,
                0.9238795042037964
            ],
            "scale": [
                0.7780064344406128,
                0.7780064344406128,
                0.7780070900917053
            ],
            "mesh": 6,
            "name": "Sphere 2"
        },
        {
            "translation": [
                0.4329974353313446,
                0.10362100601196289,
                -0.5361565351486206
            ],
            "scale": [
                1.2525683641433716,
                1.2525683641433716,
                1.2525683641433716
            ],
            "mesh": 7,
            "name": "Sphere"
        },
        {
            "translation": [
                0.39255353808403017,
                0.27935612201690676,
                0.05075477436184883
            ],
            "rotation": [
                0.0,
                0.0,
                -0.3826834261417389,
                0.9238795042037964
            ],
            "scale": [
                0.7780064344406128,
                0.7780064344406128,
                0.7780070900917053
            ],
            "mesh": 8,
            "name": "Sphere 4"
        },
        {
            "translation": [
                0.4329974353313446,
                0.2568671405315399,
                0.19680331647396089
            ],
            "scale": [
                1.2525683641433716,
                1.2525683641433716,
                1.2525683641433716
            ],
            "mesh": 9,
            "name": "Sphere 6"
        },
        {
            "translation": [
                0.19789505004882813,
                0.42709678411483767,
                -0.9958897829055786
            ],
            "rotation": [
                0.0,
                -0.7071067690849304,
                0.0,
                0.7071067690849304
            ],
            "scale": [
                2.0098700523376467,
                2.0098705291748049,
                6.220095634460449
            ],
            "mesh": 10,
            "name": "Text 2"
        },
        {
            "translation": [
                -0.2520887553691864,
                0.18738599121570588,
                -0.26188603043556216
            ],
            "rotation": [
                0.0,
                -0.7071067690849304,
                0.0,
                0.7071067690849304
            ],
            "scale": [
                2.009868621826172,
                2.009868860244751,
                6.220095157623291
            ],
            "mesh": 11,
            "name": "Text"
        }
    ],
    "samplers": [
        {},
        {},
        {}
    ],
    "scenes": [
        {
            "nodes": [
                0,
                1,
                2,
                3,
                4,
                5,
                6,
                7,
                8,
                9,
                10,
                11,
                12
            ],
            "name": "scene"
        }
    ],
    "textures": [
        {
            "name": "rainbow_anodized_metal_material::baseColor::image3",
            "sampler": 0,
            "source": 0
        },
        {
            "name": "image3",
            "sampler": 1,
            "source": 1
        },
        {
            "name": "normal_image_texture",
            "sampler": 2,
            "source": 2
        }
    ],
    "scene": 0
}